<mxfile host="app.diagrams.net" modified="2024-04-02T08:41:01.323Z" agent="Mozilla/5.0 (Macintosh; Intel Mac OS X 10_15_7) AppleWebKit/605.1.15 (KHTML, like Gecko) Version/17.3.1 Safari/605.1.15" version="24.2.1" etag="tmYEzy31J83etENljhf7" type="github">
  <diagram name="페이지-1" id="aGoEJrcaxkpYrhBVnRrx">
    <mxGraphModel>
      <root>
        <mxCell id="0" />
        <mxCell id="1" parent="0" />
      </root>
    </mxGraphModel>
  </diagram>
</mxfile>
